HIERARCHY
ROOT Hips
{
	OFFSET 0.000000 0.000000 0.000000 
	CHANNELS 6 Xposition Yposition Zposition Yrotation Zrotation Xrotation 
	JOINT Lumbar
	{
		OFFSET 0.000000 0.000000 0.000000 
		CHANNELS 3 Zrotation Xrotation Yrotation
		JOINT Neck
		{
			OFFSET 0.000000 0.445665 0.000000 
			CHANNELS 3 Zrotation Xrotation Yrotation
			End Site
			{
				OFFSET 0.000000 0.227535 0.000000 
			}
		}
		JOINT RightShoulder
		{
			OFFSET 0.019635 0.377685 0.194865 
			CHANNELS 3 Zrotation Xrotation Yrotation
			JOINT RightElbow
			{
				OFFSET 0.000000 -0.243375 0.000000 
				CHANNELS 2 Zrotation Yrotation
				JOINT RightWrist
				{
					OFFSET 0.000000 -0.264825 0.000000 
					CHANNELS 2 Zrotation Xrotation
					End Site
					{
						OFFSET 0.006600 -0.176220 0.000990 
					}
				}
			}
		}
		JOINT LeftShoulder
		{
			OFFSET 0.019635 0.377685 -0.194865 
			CHANNELS 3 Zrotation Xrotation Yrotation
			JOINT LeftElbow
			{
				OFFSET 0.000000 -0.243375 0.000000 
				CHANNELS 2 Zrotation Yrotation
				JOINT LeftWrist
				{
					OFFSET 0.000000 -0.264825 0.000000 
					CHANNELS 2 Zrotation Xrotation
					End Site
					{
						OFFSET 0.006600 -0.176220 -0.000990 
					}
				}
			}
		}
	}
	JOINT RightHip
	{
		OFFSET 0.052140 -0.069960 0.075570 
		CHANNELS 3 Zrotation Xrotation Yrotation
		JOINT RightKnee
		{
			OFFSET 0.000000 -0.402270 0.000000 
			CHANNELS 1 Zrotation
			JOINT RightAnkle
			{
				OFFSET 0.000000 -0.404085 0.000000 
				CHANNELS 3 Zrotation Xrotation Yrotation
				End Site
				{
					OFFSET 0.204105 -0.089430 0.008415 
				}
			}
		}
	}
	JOINT LeftHip
	{
		OFFSET 0.052140 -0.069960 -0.075570 
		CHANNELS 3 Zrotation Xrotation Yrotation
		JOINT LeftKnee
		{
			OFFSET 0.000000 -0.402270 0.000000 
			CHANNELS 1 Zrotation
			JOINT LeftAnkle
			{
				OFFSET 0.000000 -0.404085 0.000000 
				CHANNELS 3 Zrotation Xrotation Yrotation
				End Site
				{
					OFFSET 0.204105 -0.089430 -0.008415 
				}
			}
		}
	}
}
MOTION
Frames: 32
Frame Time: 0.02
-0 0.95578 -0 175.92613 0 7.2282 6.08758 -5.6202 1.48283 -19.77683 4.8523 2.72439 25.65114 -17.79654 11.57217 11.04646 83.66783 -1.44526 -2.37703 31.82566 2.66989 0.21414 10.91819 -82.26758 -4.27467 4.00489 19.49052 -1.22954 23.64949 -44.50333 11.95218 -8.70275 -18.0669 -1.56197 -13.54552 -2.77218 -5.66516 5.72983 6.50854 10.98404
0.00083 0.95581 0.00027 175.99134 0 7.24001 6.05285 -5.64293 1.44311 -19.78964 4.92718 2.83364 25.51932 -17.96885 12.38872 11.32416 83.5283 -1.45837 -2.54279 31.56539 2.59811 0.11136 10.93397 -82.15198 -4.15423 4.02116 19.52971 -1.26873 23.62695 -44.49277 11.92421 -8.67535 -18.06793 -1.4849 -13.45751 -0.74824 -5.71621 5.94251 5.78785 8.88589
0.00167 0.95583 0.00054 176.05628 0 7.25145 6.01786 -5.66555 1.40363 -19.80152 5.00236 2.94297 25.38426 -18.14182 13.19623 11.59883 83.38937 -1.47109 -2.70651 31.30112 2.52672 0.0202 10.94731 -82.03581 -4.03509 4.03647 19.56861 -1.30747 23.60428 -44.48195 11.89632 -8.64804 -18.06893 -1.40821 -13.36996 1.25839 -5.76686 6.15344 5.07293 6.80523
0.00249 0.95585 0.00081 176.11996 0 7.26274 5.98223 -5.68859 1.36556 -19.81179 5.07834 3.05273 25.24119 -18.31753 13.9828 11.86562 83.25238 -1.48216 -2.86417 31.02522 2.45675 -0.03835 10.95294 -81.91864 -3.91977 4.04852 19.60766 -1.34547 23.58218 -44.47172 11.86876 -8.62083 -18.07006 -1.33232 -13.28444 3.22075 -5.81657 6.35981 4.37234 4.76994
0.00335 0.95587 0.00109 176.18936 0 7.2763 5.95087 -5.71018 1.32103 -19.83298 5.14874 3.15905 25.14814 -18.47683 14.88908 12.17601 83.10619 -1.5017 -3.05455 30.8193 2.37998 -0.28519 11.0017 -81.80969 -3.78395 4.07832 19.64703 -1.38821 23.55864 -44.46048 11.83981 -8.59309 -18.0708 -1.25219 -13.18948 5.42401 -5.87147 6.59077 3.59373 2.48922
0.00415 0.95589 0.00133 176.24723 0 7.28406 5.90994 -5.73431 1.28952 -19.82942 5.23179 3.27332 24.9442 -18.67198 15.53532 12.39258 82.97886 -1.50353 -3.17508 30.45992 2.31717 -0.123 10.95766 -81.68147 -3.69179 4.07021 19.68493 -1.42034 23.53712 -44.44994 11.81357 -8.5665 -18.07219 -1.18111 -13.11365 7.11122 -5.91522 6.76916 2.98238 0.73335
0.00479 0.95586 0.00149 176.26855 0 7.2833 5.84504 -5.77042 1.30036 -19.76783 5.34592 3.40696 24.45936 -18.96434 15.50377 12.35735 82.90798 -1.45287 -3.1025 29.69717 2.2966 1.12791 10.65953 -81.5112 -3.72068 3.95619 19.72548 -1.42691 23.53017 -44.4528 11.79654 -8.54259 -18.07653 -1.13417 -13.09794 7.40203 -5.92902 6.8046 2.82091 0.40426
0.00538 0.95583 0.0016 176.27916 0 7.27505 5.76986 -5.80805 1.32323 -19.6788 5.47383 3.54914 23.8565 -19.29355 15.20156 12.226 82.85512 -1.38498 -2.95913 28.77415 2.28928 2.80147 10.26716 -81.31924 -3.79356 3.80406 19.76308 -1.42171 23.52402 -44.45387 11.78192 -8.52 -18.08119 -1.09654 -13.09997 7.16557 -5.9314 6.78637 2.83047 0.61024
0.00599 0.95581 0.00172 176.29773 0 7.26562 5.69777 -5.84202 1.33639 -19.59614 5.59789 3.6894 23.29167 -19.60744 14.9977 12.13388 82.79121 -1.32721 -2.84851 27.91107 2.27363 4.30887 9.91585 -81.1297 -3.84603 3.66987 19.7981 -1.41993 23.51109 -44.44879 11.76503 -8.49702 -18.08513 -1.05508 -13.08935 7.1537 -5.93848 6.79155 2.76921 0.58394
0.00662 0.95574 0.00188 176.30311 0 7.27649 5.63267 -5.88924 1.36724 -19.54122 5.71106 3.82178 22.7964 -19.91522 14.90062 12.06068 82.73985 -1.25965 -2.73645 27.10548 2.26828 5.70344 9.5713 -80.97155 -3.9003 3.53275 19.85084 -1.42785 23.52352 -44.47473 11.75306 -8.47281 -18.09205 -1.0117 -13.09889 7.21069 -5.94767 6.80177 2.67822 0.50592
0.00718 0.95577 0.00194 176.33358 0 7.24209 5.55019 -5.90832 1.36436 -19.41952 5.85104 3.97208 22.12367 -20.2445 14.51339 11.92505 82.66603 -1.20856 -2.60935 26.13838 2.24397 7.43752 9.19122 -80.74289 -3.96126 3.39308 19.86446 -1.41081 23.48549 -44.43359 11.73145 -8.45192 -18.09215 -0.97481 -13.06965 6.99205 -5.9497 6.78757 2.69058 0.67013
0.00757 0.95607 0.00173 176.43468 0 7.09478 5.42567 -5.8568 1.26307 -19.14158 6.05437 4.17406 21.02907 -20.62368 13.41951 11.64184 82.53033 -1.20576 -2.46878 24.79602 2.16967 9.97206 8.72823 -80.32545 -4.02998 3.25199 19.78362 -1.34394 23.29035 -44.22475 11.68229 -8.43605 -18.07798 -0.9513 -12.93691 6.20737 -5.93511 6.73006 2.93828 1.30251
0.00787 0.95649 0.00141 176.56159 0 6.90012 5.28342 -5.77537 1.12782 -18.7935 6.28544 4.39279 19.75316 -21.02296 12.03689 11.29867 82.37011 -1.22046 -2.31367 23.29102 2.07484 12.84046 8.23442 -79.83839 -4.10393 3.1102 19.66095 -1.24899 23.04838 -43.94504 11.62336 -8.42422 -18.05519 -0.93447 -12.76265 5.15537 -5.91359 6.64831 3.28487 2.16904
0.0082 0.95687 0.00112 176.67758 0 6.72061 5.14701 -5.70289 1.00966 -18.46334 6.50875 4.60134 18.53377 -21.41378 10.76889 10.9823 82.21867 -1.228 -2.15801 21.83947 1.98569 15.57745 7.75955 -79.38187 -4.17543 2.97128 19.54923 -1.15671 22.83849 -43.68687 11.56919 -8.41299 -18.03444 -0.91602 -12.60271 4.17713 -5.89509 6.56977 3.59247 2.9794
0.0086 0.95717 0.00092 176.78995 0 6.56831 5.01946 -5.65062 0.88501 -18.19069 6.71261 4.82188 17.41723 -21.80445 9.5648 10.66521 82.07961 -1.23134 -2.02949 20.46761 1.91224 18.24147 7.2596 -78.92627 -4.2487 2.82074 19.47214 -1.10802 22.58017 -43.47463 11.51397 -8.39137 -18.02529 -0.89175 -12.46427 3.36476 -5.87694 6.52011 3.88393 3.61344
0.00883 0.95768 0.00051 176.91593 0 6.34744 4.86954 -5.54844 0.76553 -17.78253 6.96273 5.02022 16.04782 -22.19794 8.15845 10.3357 81.90649 -1.2481 -1.84268 18.89463 1.80125 21.13372 6.80701 -78.45621 -4.31907 2.69413 19.31215 -0.96027 22.4152 -43.14871 11.45829 -8.39254 -17.98533 -0.88128 -12.26884 2.17186 -5.8563 6.40798 4.22648 4.64189
0.00867 0.95874 -0.0004 177.07528 0 5.95547 4.66116 -5.32169 0.66965 -17.01312 7.33898 5.16224 14.00159 -22.60894 6.29994 9.99561 81.6645 -1.29551 -1.49213 16.79633 1.58993 24.5545 6.48269 -77.93003 -4.37848 2.63968 18.94051 -0.56136 22.48795 -42.53612 11.40509 -8.45304 -17.90362 -0.90536 -11.94456 -0.19286 -5.83318 6.10555 4.71802 6.88754
0.00835 0.96002 -0.00153 177.24734 0 5.49507 4.43127 -5.04467 0.57978 -16.11122 7.75949 5.27944 11.71303 -23.01885 4.24225 9.64431 81.38575 -1.35639 -1.08494 14.5051 1.34197 28.19698 6.20944 -77.39689 -4.4347 2.60882 18.48545 -0.06128 22.66162 -41.80942 11.35069 -8.53618 -17.78487 -0.94339 -11.56109 -2.89654 -5.80747 5.74547 5.25111 9.48727
0.00809 0.96121 -0.00258 177.41194 0 5.0615 4.21174 -4.78674 0.48657 -15.2722 8.15667 5.40223 9.54977 -23.41986 2.25408 9.29212 81.11066 -1.41246 -0.70825 12.30782 1.11159 31.7465 5.9199 -76.89028 -4.49346 2.563 18.06413 0.40312 22.8104 -41.12888 11.29692 -8.61152 -17.65432 -0.97627 -11.19226 -5.3167 -5.78109 5.428 5.74271 11.79741
0.00788 0.96235 -0.00352 177.58354 0 4.64372 3.98849 -4.5435 0.39522 -14.41721 8.56965 5.55032 7.31191 -23.86252 0.3455 8.96127 80.88829 -1.46321 -0.31105 10.07322 0.87579 35.26714 5.60008 -76.28719 -4.54852 2.53344 17.65948 0.82671 22.87109 -40.4712 11.24569 -8.67916 -17.63873 -1.00445 -10.87274 -8.28215 -5.76177 5.04165 6.33158 14.64887
0.00751 0.96365 -0.00474 177.74449 0 4.17812 3.76891 -4.25825 0.30131 -13.56773 8.95829 5.63872 5.17946 -24.21633 -1.77385 8.58632 80.54961 -1.52852 0.05683 7.87904 0.64385 38.90611 5.35577 -75.87849 -4.60957 2.47764 17.20018 1.35685 23.1372 -39.73815 11.18497 -8.7648 -17.38208 -1.04555 -10.43828 -10.20259 -5.72783 4.78381 6.72859 16.46692
0.00678 0.96532 -0.00665 177.86201 0 3.59161 3.55803 -3.86813 0.20402 -12.74332 9.28225 5.57603 3.35536 -24.33833 -4.40812 8.07383 79.88284 -1.62602 0.32809 5.79205 0.42341 42.72126 5.30877 -76.06107 -4.69581 2.32583 16.61612 2.17405 23.96769 -38.83835 11.13381 -8.92415 -16.40722 -1.11977 -9.69004 -9.03261 -5.64906 4.90907 6.566 15.22896
0.00588 0.96712 -0.00882 177.97029 0 2.96066 3.35306 -3.43781 0.1033 -11.93422 9.57744 5.45273 1.65555 -24.3684 -7.24678 7.52116 79.10363 -1.73829 0.56781 3.76424 0.20999 46.65772 5.33596 -76.43173 -4.78697 2.14963 15.97907 3.09127 24.99667 -37.86433 11.06708 -9.09574 -15.20201 -1.20628 -8.83044 -6.82008 -5.55675 5.16327 6.21197 12.95865
0.00504 0.96886 -0.01088 178.08979 0 2.35393 3.14968 -3.02689 0.00077 -11.13248 9.87708 5.35188 -0.07405 -24.43171 -10.00593 6.99926 78.38614 -1.84707 0.82346 1.74231 -0.00157 50.60816 5.32847 -76.67978 -4.8703 1.99691 15.36274 3.95143 25.92184 -36.91599 10.98364 -9.24175 -14.14348 -1.28666 -8.02914 -5.16403 -5.47388 5.34913 5.95808 11.23631
0.00428 0.97064 -0.01293 178.18002 0 1.72763 2.92689 -2.60961 -0.08791 -10.2631 10.21521 5.27113 -1.92933 -24.53091 -12.72718 6.4239 77.62149 -1.9436 1.0757 -0.43042 -0.23681 54.30098 5.32672 -77.07719 -4.97594 1.79478 14.75766 4.86541 26.91166 -35.9982 10.99852 -9.47125 -12.90879 -1.37004 -7.19319 -3.17306 -5.3766 5.57357 5.65057 9.19587
0.00331 0.97236 -0.01506 178.32895 0 1.13264 2.74695 -2.19646 -0.2056 -9.54315 10.4651 5.13514 -3.48462 -24.53372 -15.55895 5.95075 76.93015 -2.06789 1.32516 -2.26547 -0.41924 58.5234 5.33011 -77.21723 -5.03783 1.68682 14.11767 5.68812 27.80798 -34.9999 10.80753 -9.53173 -11.98376 -1.44964 -6.40385 -1.62496 -5.30669 5.74969 5.40828 7.56555
0.00181 0.97393 -0.01738 178.64176 0 0.63403 2.67798 -1.80683 -0.40868 -9.20659 10.48364 4.85572 -4.28562 -24.29108 -18.7671 5.76798 76.45829 -2.27425 1.58865 -3.2387 -0.46848 64.45384 5.32806 -76.52055 -4.96434 1.86759 13.39475 6.24739 28.43644 -33.80478 10.02945 -9.10259 -11.9964 -1.51795 -5.77015 -1.57637 -5.31124 5.75548 5.39632 7.34087
0.00011 0.97544 -0.01979 179.0142 0 0.1692 2.65327 -1.42274 -0.63961 -9.02596 10.41309 4.52408 -4.77849 -23.95501 -22.05568 5.68988 76.06648 -2.50622 1.84763 -3.86118 -0.4623 70.85719 5.32865 -75.57101 -4.84884 2.13972 12.63895 6.70828 28.95583 -32.53067 9.04899 -8.50646 -12.32379 -1.58154 -5.18777 -2.0041 -5.34461 5.70945 5.45571 7.55896
-0.0015 0.97697 -0.02215 179.35931 0 -0.31038 2.61212 -1.03471 -0.85394 -8.79053 10.37973 4.22012 -5.38397 -23.6628 -25.22703 5.56503 75.6448 -2.72053 2.09911 -4.60835 -0.47456 76.8666 5.32874 -74.79275 -4.76177 2.35485 11.89821 7.2053 29.49961 -31.28821 8.17579 -7.99981 -12.49026 -1.64582 -4.58212 -2.1974 -5.36776 5.69103 5.47999 7.559
-0.00309 0.97853 -0.02454 179.70422 0 -0.79496 2.55512 -0.65065 -1.08549 -8.4851 10.35958 3.89702 -6.10566 -23.36118 -28.74663 5.43522 75.19075 -2.961 2.38945 -5.5063 -0.51637 83.64989 5.32849 -73.79273 -4.63679 2.63401 11.15474 7.74263 30.15811 -30.06001 7.23719 -7.43649 -12.72475 -1.71677 -3.97143 -2.42878 -5.37844 5.66011 5.50905 7.59415
-0.00476 0.98002 -0.02689 180.06492 0 -1.25943 2.54223 -0.26093 -1.28719 -8.36558 10.29078 3.60258 -6.50794 -23.05855 -31.55682 5.34123 74.82575 -3.15262 2.5987 -5.99993 -0.48192 88.91479 5.32864 -73.18003 -4.57905 2.80244 10.41029 8.17064 30.54733 -28.78558 6.38732 -6.95103 -12.89459 -1.77242 -3.386 -2.70952 -5.42195 5.64102 5.54745 7.67494
-0.00659 0.98137 -0.0291 180.44575 0 -1.68531 2.6349 0.15192 -1.40429 -8.69382 10.11248 3.39687 -6.15181 -22.77332 -32.38894 5.32005 74.67771 -3.20516 2.5806 -5.5272 -0.26416 90.0126 5.32855 -73.80508 -4.73188 2.63785 9.66801 8.32587 30.23401 -27.39336 5.82911 -6.72481 -12.81672 -1.78791 -2.84938 -2.99776 -5.55032 5.66844 5.59621 7.77595
